<?xml version="1.0" encoding="iso-8859-1"?>
<!-- Generator: Adobe Illustrator 19.0.0, SVG Export Plug-In . SVG Version: 6.00 Build 0)  -->
<svg version="1.1" id="Capa_1" xmlns="http://www.w3.org/2000/svg" xmlns:xlink="http://www.w3.org/1999/xlink" x="0px" y="0px"
	 viewBox="0 0 512 512" style="enable-background:new 0 0 512 512;" xml:space="preserve">
<g>
	<g>
		<path d="M287.992,0.021H37.003c-20.4,0-36.999,16.597-36.999,36.998v437.982C0.004,495.403,16.601,512,37.003,512h250.99
			c49.624,0,89.996-40.372,89.996-89.996v-53.998V160.014V90.017C377.989,40.393,337.616,0.021,287.992,0.021z M20.003,37.019
			c0-9.374,7.626-16.999,16.999-16.999h153.007v163.66c0,5.523,4.478,10,10,10s10-4.477,10-10V20.02h35.999v417.983h-35.999V272.504
			c0-5.523-4.478-10-10-10s-10,4.477-10,10v165.499H75.182H37.003c-6.127,0-11.906,1.506-16.999,4.153V37.019z M287.992,492.001
			H37.003c-9.374,0-16.999-7.626-16.999-16.999s7.626-16.999,16.999-16.999h38.179h212.81c28.206,0,53.418-13.047,69.932-33.419
			C356.559,461.988,325.724,492.001,287.992,492.001z M357.989,160.014v207.992c0,38.596-31.4,69.997-69.997,69.997h-21.986V20.02
			h21.986c38.597,0,69.997,31.401,69.997,69.997V160.014z"/>
	</g>
</g>
<g>
	<g>
		<path d="M457.989,245.495c-5.522,0-10,4.477-10,10v0.153c0,5.523,4.478,10,10,10s10-4.477,10-10v-0.153
			C467.989,249.972,463.512,245.495,457.989,245.495z"/>
	</g>
</g>
<g>
	<g>
		<path d="M479.362,0H436.36c-17.994,0-32.634,14.639-32.634,32.633v391.996c0,1.738,0.453,3.445,1.313,4.955l44.135,77.372
			c1.78,3.12,5.096,5.045,8.687,5.045c3.591,0,6.906-1.926,8.687-5.045l44.135-77.372c0.86-1.509,1.313-3.217,1.313-4.955V32.633
			C511.996,14.639,497.357,0,479.362,0z M457.861,481.819l-26.919-47.191h53.838L457.861,481.819z M491.997,414.629h-24.008V293.906
			c0-5.523-4.478-10-10-10s-10,4.477-10,10v120.723h-24.264V89.16h24.264v128.759c0,5.523,4.478,10,10,10s10-4.477,10-10V89.16
			h24.008V414.629z M491.997,69.16h-68.27V32.633c-0.001-6.967,5.667-12.633,12.633-12.633h43.002
			c6.967,0,12.635,5.667,12.635,12.633V69.16z"/>
	</g>
</g>
<g>
	<g>
		<path d="M207.078,221.942c-1.859-1.86-4.439-2.93-7.069-2.93s-5.21,1.07-7.07,2.93s-2.93,4.44-2.93,7.07s1.069,5.21,2.93,7.07
			s4.44,2.93,7.07,2.93s5.21-1.07,7.069-2.93c1.86-1.86,2.931-4.44,2.931-7.07S208.938,223.802,207.078,221.942z"/>
	</g>
</g>
<g>
</g>
<g>
</g>
<g>
</g>
<g>
</g>
<g>
</g>
<g>
</g>
<g>
</g>
<g>
</g>
<g>
</g>
<g>
</g>
<g>
</g>
<g>
</g>
<g>
</g>
<g>
</g>
<g>
</g>
</svg>
