<?xml version="1.0" encoding="iso-8859-1"?>
<!-- Generator: Adobe Illustrator 19.0.0, SVG Export Plug-In . SVG Version: 6.00 Build 0)  -->
<svg version="1.1" id="Capa_1" xmlns="http://www.w3.org/2000/svg" xmlns:xlink="http://www.w3.org/1999/xlink" x="0px" y="0px"
	 viewBox="0 0 512 512" style="enable-background:new 0 0 512 512;" xml:space="preserve">
<path style="fill:#F5B955;" d="M413.727,424.64V32.644c0-12.499,10.134-22.633,22.633-22.633h43.003
	c12.5,0,22.633,10.134,22.633,22.633V424.64L413.727,424.64L413.727,424.64z"/>
<path style="fill:#FF8C8C;" d="M413.727,79.171V32.644c0-12.499,10.134-22.633,22.633-22.633h43.003
	c12.5,0,22.633,10.134,22.633,22.633v46.527C501.996,79.171,413.727,79.171,413.727,79.171z"/>
<path style="fill:#FAE196;" d="M501.996,424.64l-44.135,77.372l-44.135-77.372H501.996z"/>
<g>
	<path style="fill:#FF5A5A;" d="M75.182,448.003h212.81c44.181,0,79.997-35.816,79.997-79.997V90.017
		c0-44.181-35.816-79.997-79.997-79.997H37.002c-14.911,0-26.999,12.088-26.999,26.999v437.982L75.182,448.003z"/>
	<path style="fill:#FF5A5A;" d="M367.989,368.006V90.017c0-44.181-35.816-79.997-79.997-79.997h-31.986v437.982h31.986
		C332.173,448.003,367.989,412.187,367.989,368.006z"/>
</g>
<rect x="200.012" y="10.02" style="fill:#6E87F5;" width="55.998" height="437.982"/>
<path style="fill:#FFFFFF;" d="M287.992,448.003H37.002c-14.911,0-26.999,12.088-26.999,26.999l0,0
	c0,14.911,12.088,26.999,26.999,26.999h250.99c44.181,0,79.997-35.816,79.997-79.997v-53.996
	C367.988,412.188,332.172,448.003,287.992,448.003z"/>
<path d="M287.992,0.021H37.002c-20.4,0-36.998,16.597-36.998,36.998v437.982C0.004,495.403,16.601,512,37.002,512h250.99
	c49.624,0,89.996-40.372,89.996-89.996v-53.998V160.014V90.017C377.989,40.393,337.616,0.021,287.992,0.021z M37.002,20.02h153.007
	v163.66c0,5.523,4.478,10,10,10c5.522,0,10-4.477,10-10V20.02h35.999v417.983h-35.999V272.504c0-5.523-4.478-10-10-10
	c-5.522,0-10,4.477-10,10v165.499H75.182H37.002c-6.127,0-11.906,1.506-16.999,4.153V37.019
	C20.003,27.646,27.629,20.02,37.002,20.02z M287.992,492.001H37.002c-9.374,0-16.999-7.626-16.999-16.999
	c0-9.374,7.626-16.999,16.999-16.999h38.179h212.81c28.206,0,53.418-13.047,69.932-33.419
	C356.559,461.988,325.724,492.001,287.992,492.001z M357.989,160.014v207.991c0,38.596-31.4,69.997-69.997,69.997h-21.986V20.02
	h21.986c38.597,0,69.997,31.401,69.997,69.997V160.014z"/>
<path d="M457.989,245.495c-5.522,0-10,4.477-10,10v0.153c0,5.523,4.478,10,10,10s10-4.477,10-10v-0.153
	C467.989,249.972,463.512,245.495,457.989,245.495z"/>
<path d="M479.362,0H436.36c-17.994,0-32.634,14.639-32.634,32.633v391.996c0,1.738,0.453,3.445,1.313,4.955l44.135,77.372
	c1.78,3.12,5.096,5.045,8.687,5.045s6.906-1.926,8.687-5.045l44.135-77.372c0.86-1.509,1.313-3.217,1.313-4.955V32.633
	C511.996,14.639,497.357,0,479.362,0z M467.989,414.629V293.906c0-5.523-4.478-10-10-10s-10,4.477-10,10v120.723h-24.264V89.16
	h24.264v128.759c0,5.523,4.478,10,10,10s10-4.477,10-10V89.16h24.008v325.469H467.989z M436.36,19.999h43.002
	c6.967,0,12.634,5.667,12.634,12.633V69.16h-68.27V32.633C423.726,25.666,429.393,19.999,436.36,19.999z M457.861,481.819
	l-26.919-47.191h53.838L457.861,481.819z"/>
<path d="M200.009,239.011c2.63,0,5.21-1.07,7.069-2.93c1.86-1.86,2.931-4.44,2.931-7.07c0-2.63-1.07-5.21-2.931-7.07
	c-1.859-1.86-4.439-2.93-7.069-2.93c-2.63,0-5.21,1.07-7.07,2.93c-1.86,1.86-2.93,4.44-2.93,7.07c0,2.63,1.069,5.21,2.93,7.07
	S197.379,239.011,200.009,239.011z"/>
<g>
</g>
<g>
</g>
<g>
</g>
<g>
</g>
<g>
</g>
<g>
</g>
<g>
</g>
<g>
</g>
<g>
</g>
<g>
</g>
<g>
</g>
<g>
</g>
<g>
</g>
<g>
</g>
<g>
</g>
</svg>
