<?xml version="1.0" encoding="iso-8859-1"?>
<!-- Generator: Adobe Illustrator 19.0.0, SVG Export Plug-In . SVG Version: 6.00 Build 0)  -->
<svg version="1.1" id="Capa_1" xmlns="http://www.w3.org/2000/svg" xmlns:xlink="http://www.w3.org/1999/xlink" x="0px" y="0px"
	 viewBox="0 0 512 512" style="enable-background:new 0 0 512 512;" xml:space="preserve">
<g>
	<polygon style="fill:#1D80FF;" points="54.915,10.004 54.915,459.194 97.799,459.194 154.069,459.194 308.022,459.194 
		308.022,10.004 	"/>
	<rect x="308.02" y="10.004" style="fill:#FFC66C;" width="43.018" height="449.189"/>
	<path style="fill:#1D80FF;" d="M351.04,10.004v449.189h32.514c17.883,0,32.514-14.631,32.514-32.514v-78.79v-99.997v-99.997V42.518
		c0-17.883-14.631-32.513-32.513-32.513L351.04,10.004L351.04,10.004z"/>
	<polygon style="fill:#EDF2FA;" points="416.068,47.422 416.068,147.466 456.084,137.461 456.084,57.426 	"/>
	<polygon style="fill:#FF5D5D;" points="456.084,167.475 416.068,157.47 416.068,257.515 456.084,247.51 	"/>
	<polygon style="fill:#72D8FF;" points="456.084,277.524 416.068,267.519 416.068,367.564 456.084,357.559 	"/>
	<polygon style="fill:#FFC66C;" points="153.957,501.996 153.957,459.194 97.933,459.194 97.933,501.996 125.946,491.295 	"/>
</g>
<path d="M466.089,137.461V57.426c0-4.591-3.124-8.592-7.577-9.706l-33.209-8.303C421.278,17.039,401.676,0,378.157,0H55.916
	c-5.524,0-10.004,4.479-10.004,10.004v449.189c0,5.525,4.48,10.004,10.004,10.004h32.014v32.798c0,3.291,1.62,6.374,4.331,8.239
	c2.713,1.868,6.169,2.281,9.243,1.105l24.442-9.336l24.442,9.336c1.155,0.441,2.365,0.659,3.568,0.659
	c1.999,0,3.982-0.599,5.674-1.765c2.711-1.867,4.331-4.948,4.331-8.239v-32.798h144.061h43.018h27.116
	c26.42,0,47.915-21.494,47.915-47.915v-45.908l32.44-8.11c4.453-1.113,7.577-5.115,7.577-9.706v-80.035
	c0-4.591-3.124-8.592-7.577-9.706l-21.203-5.301l21.203-5.301c4.453-1.113,7.577-5.115,7.577-9.706v-80.036
	c0-4.591-3.124-8.592-7.577-9.706l-21.204-5.301l21.204-5.301C462.964,146.054,466.089,142.052,466.089,137.461z M65.92,20.008
	h232.098v429.181H153.957H97.933H65.92V20.008z M143.953,487.465l-14.438-5.515c-1.149-0.439-2.359-0.659-3.569-0.659
	s-2.42,0.22-3.57,0.659l-14.438,5.515v-18.267h36.015V487.465z M318.026,449.189V20.008h23.01v429.181H318.026z M406.063,421.283
	c0,15.388-12.519,27.907-27.907,27.907h-17.112V20.008h17.112c15.388,0,27.907,12.519,27.907,27.907v99.551v10.005v100.044v10.004
	v100.044V421.283z M446.08,349.749l-20.008,5.002v-74.417l20.008,5.002V349.749z M446.08,239.699l-20.008,5.002v-74.417
	l20.008,5.002V239.699z M446.08,129.651l-20.008,5.002V60.234l20.008,5.002V129.651z"/>
<path d="M142.952,46.019c0-5.525-4.48-10.004-10.004-10.004H91.931c-5.524,0-10.004,4.479-10.004,10.004s4.48,10.004,10.004,10.004
	h41.017C138.472,56.024,142.952,51.545,142.952,46.019z"/>
<path d="M160.96,56.024h1c5.524,0,10.004-4.479,10.004-10.004s-4.48-10.004-10.004-10.004h-1c-5.524,0-10.004,4.479-10.004,10.004
	S155.436,56.024,160.96,56.024z"/>
<g>
</g>
<g>
</g>
<g>
</g>
<g>
</g>
<g>
</g>
<g>
</g>
<g>
</g>
<g>
</g>
<g>
</g>
<g>
</g>
<g>
</g>
<g>
</g>
<g>
</g>
<g>
</g>
<g>
</g>
</svg>
