<?xml version="1.0" encoding="iso-8859-1"?>
<!-- Generator: Adobe Illustrator 19.0.0, SVG Export Plug-In . SVG Version: 6.00 Build 0)  -->
<svg version="1.1" id="Layer_1" xmlns="http://www.w3.org/2000/svg" xmlns:xlink="http://www.w3.org/1999/xlink" x="0px" y="0px"
	 viewBox="0 0 496 496" style="enable-background:new 0 0 496 496;" xml:space="preserve">
<g>
	<g>
		<g>
			<rect x="112" y="448" width="80" height="16"/>
			<path d="M408,256c-14.352,0-28.56,3.568-41.28,10.344l-0.944-0.16C367.248,257.4,368,248.624,368,240
				c0-19.496-3.576-38.552-10.56-56.8l9.28-1.544C379.44,188.432,393.648,192,408,192c48.52,0,88-39.48,88-88s-39.48-88-88-88
				c-48.52,0-88,39.48-88,88c0,7.992,1.088,15.928,3.24,23.632l-0.496,0.992c-5.88-6.064-12.176-11.624-18.84-16.624H304V40
				c0-22.056-17.944-40-40-40H40C17.944,0,0,17.944,0,40v416c0,22.056,17.944,40,40,40h224c22.056,0,40-17.944,40-40v-88h-0.136
				c5.848-4.416,11.408-9.272,16.672-14.52C325.272,397.56,362.68,432,408,432c48.52,0,88-39.48,88-88
				C496,295.48,456.52,256,408,256z M340.416,129.04l-0.992-3.104C337.152,118.816,336,111.448,336,104c0-39.704,32.296-72,72-72
				c39.704,0,72,32.296,72,72s-32.296,72-72,72c-12.52,0-24.92-3.328-35.848-9.624l-2.488-1.432l-51.488,8.576L340.416,129.04z
				 M16,40c0-13.232,10.768-24,24-24h224c13.232,0,24,10.768,24,24v8H16V40z M288,456c0,13.232-10.768,24-24,24H40
				c-13.232,0-24-10.768-24-24v-24h272V456z M288,416H16V64h272v37.496C263.96,87.584,236.488,80,208,80
				c-88.224,0-160,71.776-160,160s71.776,160,160,160c28.672,0,56.064-7.528,80-21.44V416z M208,174.24
				c6.088,6.992,16.344,15.064,32,17.192V192c0,17.648-14.352,32-32,32s-32-14.352-32-32v-0.568
				C191.656,189.312,201.912,181.232,208,174.24z M176.08,175.2c0.432-17.272,14.544-31.2,31.92-31.2
				c17.376,0,31.496,13.936,31.92,31.216c-17.584-3.512-24.296-17.776-24.592-18.416h-14.656
				C200.592,156.96,193.944,171.624,176.08,175.2z M240,240c22.056,0,40,17.944,40,40v84.696c-5.168,3-10.504,5.68-16,8.008V280h-16
				v64h-80v-64h-16v92.664c-5.544-2.352-10.832-5.152-16-8.152V280c0-22.056,17.944-40,40-40H240z M248,360v18.36
				c-12.816,3.696-26.24,5.64-40,5.64c-13.888,0-27.28-2.08-40-5.768V360H248z M321.632,328.136
				c-7.576,9.76-16.2,18.344-25.632,25.696V280c0-29.688-23.248-53.992-52.488-55.824C251.24,215.656,256,204.384,256,192v-16
				c0-26.472-21.528-48-48-48s-48,21.528-48,48v16c0,12.384,4.752,23.656,12.488,32.176C143.248,226.008,120,250.312,120,280v73.728
				C86.008,327.36,64,286.248,64,240c0-79.4,64.6-144,144-144c41.048,0,79.696,17.528,107.048,48.024l-25.224,50.448l51.32-8.56
				C348.224,203.248,352,221.384,352,240c0,7.728-0.88,15.616-2.2,23.52l-59.976-10l33.424,66.84
				C322.528,322.92,322.112,325.528,321.632,328.136z M408,416c-39.704,0-72-32.296-72-72c0-7.448,1.152-14.824,3.432-21.936
				l0.992-3.104l-22.24-44.48l51.488,8.576l2.488-1.432C383.08,275.328,395.48,272,408,272c39.704,0,72,32.296,72,72
				C480,383.704,447.704,416,408,416z"/>
			<polygon points="395.84,152 462.248,69 449.752,59 388.152,136 387.312,136 357.656,106.344 346.344,117.656 380.688,152 			"/>
			<polygon points="442.344,298.344 408,332.688 373.656,298.344 362.344,309.656 396.688,344 362.344,378.344 373.656,389.656 
				408,355.312 442.344,389.656 453.656,378.344 419.312,344 453.656,309.656 			"/>
		</g>
	</g>
</g>
<g>
</g>
<g>
</g>
<g>
</g>
<g>
</g>
<g>
</g>
<g>
</g>
<g>
</g>
<g>
</g>
<g>
</g>
<g>
</g>
<g>
</g>
<g>
</g>
<g>
</g>
<g>
</g>
<g>
</g>
</svg>
