<?xml version="1.0" encoding="iso-8859-1"?>
<!-- Generator: Adobe Illustrator 19.0.0, SVG Export Plug-In . SVG Version: 6.00 Build 0)  -->
<svg version="1.1" id="Capa_1" xmlns="http://www.w3.org/2000/svg" xmlns:xlink="http://www.w3.org/1999/xlink" x="0px" y="0px"
	 viewBox="0 0 512 512" style="enable-background:new 0 0 512 512;" xml:space="preserve">
<g>
	<g>
		<circle cx="151.5" cy="166" r="15"/>
	</g>
</g>
<g>
	<g>
		<circle cx="211.5" cy="166" r="15"/>
	</g>
</g>
<g>
	<g>
		<path d="M278.985,191c4.844-12.064,7.515-25.225,7.515-39c0-7.477-0.772-14.826-2.302-22H362.5v-30h-68V65
			c0-35.841-29.159-65-65-65h-96c-35.841,0-65,29.159-65,65v35h-68v30h78.308c-1.531,7.177-2.308,14.528-2.308,22
			c0,29.354,12.113,55.927,31.596,75H83.102H72.429c-15.572,0-30.329,6.766-40.487,18.563
			c-10.153,11.79-14.651,27.375-12.341,42.771l26.893,178.188c1.898,12.644,8.281,24.201,17.973,32.544
			c9.69,8.34,22.07,12.934,34.857,12.934H140.3h82.4h40.976c12.788,0,25.167-4.594,34.857-12.934
			c9.692-8.343,16.075-19.9,17.971-32.532L332.432,361H511.5V191H278.985z M98.5,65c0-19.299,15.701-35,35-35h96
			c19.299,0,35,15.701,35,35v35h-166V65z M106.5,152c0-7.55,1.114-14.916,3.288-22h143.417c2.174,7.081,3.295,14.444,3.295,22
			c0,14.275-4.012,27.629-10.963,39h-37.063l17.68,21.216C213.67,221.498,198.217,227,181.5,227
			C140.145,227,106.5,193.355,106.5,152z M243.279,257l-8.095,40.336L209.349,257H243.279z M153.651,257l-25.835,40.336L119.721,257
			H153.651z M99.324,482c-11.688,0-21.43-8.382-23.165-19.942L49.267,283.87c-1.012-6.738,0.959-13.565,5.408-18.731
			C59.129,259.967,65.6,257,72.429,257h16.694l45.156,225H99.324z M198.123,482h-33.246l-28.561-142.312l45.184-70.546
			l45.184,70.546L198.123,482z M286.838,462.069C285.105,473.618,275.364,482,263.676,482h-34.955L265.5,298.741V361h36.592
			L286.838,462.069z M481.5,331h-186v-82.431L272.525,221H481.5V331z"/>
	</g>
</g>
<g>
	<g>
		<circle cx="386.5" cy="276" r="15"/>
	</g>
</g>
<g>
	<g>
		<circle cx="436.5" cy="276" r="15"/>
	</g>
</g>
<g>
	<g>
		<circle cx="336.5" cy="276" r="15"/>
	</g>
</g>
<g>
</g>
<g>
</g>
<g>
</g>
<g>
</g>
<g>
</g>
<g>
</g>
<g>
</g>
<g>
</g>
<g>
</g>
<g>
</g>
<g>
</g>
<g>
</g>
<g>
</g>
<g>
</g>
<g>
</g>
</svg>
