<svg height="480pt" viewBox="-8 0 480 480" width="480pt" xmlns="http://www.w3.org/2000/svg"><path d="m144 32h192v16h-192zm0 0"/><path d="m240 64h96v16h-96zm0 0"/><path d="m144 64h80v16h-80zm0 0"/><path d="m144 96h192v16h-192zm0 0"/><path d="m464 320v-48h-32v-72c0-13.253906-10.746094-24-24-24h-96c-13.253906 0-24 10.746094-24 24v72h-32v48h16v112h-16v48h208v-48h-16v-112zm-160-120c0-4.417969 3.582031-8 8-8h96c4.417969 0 8 3.582031 8 8v72h-112zm-32 88h176v16h-176zm176 176h-176v-16h176zm-16-32h-144v-112h144zm0 0"/><path d="m352 382.527344v33.472656h24v-16h-8v-17.472656c11.019531-3.894532 17.632812-15.164063 15.65625-26.683594-1.976562-11.523438-11.96875-19.941406-23.65625-19.941406s-21.679688 8.417968-23.65625 19.941406c-1.976562 11.519531 4.636719 22.789062 15.65625 26.683594zm8-30.527344c4.417969 0 8 3.582031 8 8s-3.582031 8-8 8-8-3.582031-8-8 3.582031-8 8-8zm0 0"/><path d="m16 440v-312h88c13.253906 0 24-10.746094 24-24v-88h216c4.417969 0 8 3.582031 8 8v136h16v-136c0-13.253906-10.746094-24-24-24h-227.3125l-116.6875 116.6875v323.3125c0 13.253906 10.746094 24 24 24h216v-16h-216c-4.417969 0-8-3.582031-8-8zm88-328h-76.6875l84.6875-84.6875v76.6875c0 4.417969-3.582031 8-8 8zm0 0"/><path d="m352 208h16v48h-16zm0 0"/><path d="m64 160c0 8.835938-7.164062 16-16 16s-16-7.164062-16-16 7.164062-16 16-16 16 7.164062 16 16zm0 0"/><path d="m64 256c0 8.835938-7.164062 16-16 16s-16-7.164062-16-16 7.164062-16 16-16 16 7.164062 16 16zm0 0"/><path d="m64 208c0 8.835938-7.164062 16-16 16s-16-7.164062-16-16 7.164062-16 16-16 16 7.164062 16 16zm0 0"/><path d="m64 304c0 8.835938-7.164062 16-16 16s-16-7.164062-16-16 7.164062-16 16-16 16 7.164062 16 16zm0 0"/><path d="m64 352c0 8.835938-7.164062 16-16 16s-16-7.164062-16-16 7.164062-16 16-16 16 7.164062 16 16zm0 0"/><path d="m64 400c0 8.835938-7.164062 16-16 16s-16-7.164062-16-16 7.164062-16 16-16 16 7.164062 16 16zm0 0"/><path d="m80 200h144v16h-144zm0 0"/><path d="m80 296h144v16h-144zm0 0"/><path d="m80 152h144v16h-144zm0 0"/><path d="m80 248h144v16h-144zm0 0"/><path d="m80 344h144v16h-144zm0 0"/><path d="m80 392h144v16h-144zm0 0"/></svg>