<svg xmlns="http://www.w3.org/2000/svg" xmlns:xlink="http://www.w3.org/1999/xlink" version="1.1" style="" xml:space="preserve" width="512" height="512"><rect id="backgroundrect" width="100%" height="100%" x="0" y="0" fill="none" stroke="none"/>
















<g class="currentLayer" style=""><title>Layer 1</title><g id="svg_1" class="selected" stroke="#ffffff" stroke-opacity="1" fill="#ffffff" fill-opacity="1">
	<g id="svg_2" stroke="#ffffff" stroke-opacity="1" fill="#ffffff" fill-opacity="1">
		<g id="svg_3" stroke="#ffffff" stroke-opacity="1" fill="#ffffff" fill-opacity="1">
			<path d="M57.86321077728272,184.39121149253845 c2.411,5.355 8.683,7.723 14.101,5.355 c5.376,-2.411 7.7650000000000015,-8.725 5.355,-14.101 l-24.363,-54.165 c-2.411,-5.355 0,-11.691 5.333,-14.101 l97.301,-43.755 c2.624,-1.173 5.525,-1.259 8.149000000000001,-0.256 c2.6670000000000007,1.003 4.779,3.008 5.931,5.589 l51.904,115.413 c1.8130000000000002,3.968 5.696,6.315 9.771,6.315 c1.451,0 2.944,-0.2990000000000003 4.373,-0.9390000000000006 c5.376,-2.411 7.7650000000000015,-8.725 5.355,-14.101 L189.16921077728273,60.23121149253845 c-3.52,-7.787 -9.835,-13.76 -17.835,-16.789 c-8,-3.029 -16.683,-2.7520000000000002 -24.469,0.7470000000000009 L49.56421077728272,87.94321149253845 c-16.085,7.232 -23.275,26.219 -16.043,42.304 L57.86321077728272,184.39121149253845 z" id="svg_4" stroke="#ffffff" stroke-opacity="1" fill="#ffffff" fill-opacity="1"/>
			<path d="M284.6152107772827,183.02521149253846 c1.323,4.5440000000000005 5.504,7.659 10.219,7.659 h175.68 c4.736,0 8.896,-3.115 10.219,-7.659 l18.816,-64 c1.536,-5.248 -1.131,-10.816 -6.187,-12.885 c-5.077,-2.027 -10.88,0.02100000000000004 -13.44,4.843 C475.82521077728273,118.70521149253847 458.2472107772827,126.68421149253845 436.01721077728274,126.68421149253845 c-24.427,0 -42.667,-11.264 -42.667,-21.333 v-64 C393.3512107772827,17.820211492538448 374.2152107772827,-1.3157885074615479 350.6842107772827,-1.3157885074615479 c-23.531,0 -42.667,19.136 -42.667,42.667 v10.667 C308.01721077728274,57.905211492538456 312.79621077728274,62.68421149253845 318.6842107772827,62.68421149253845 s10.667,-4.779 10.667,-10.667 V41.351211492538454 c0,-11.755 9.579,-21.333 21.333,-21.333 s21.333,9.579 21.333,21.333 v64 c0,10.069 -18.24,21.333 -42.667,21.333 c-22.229,0 -39.808,-7.979 -43.925,-15.701 c-2.56,-4.821 -8.427,-6.827 -13.44,-4.843 c-5.056,2.069 -7.723,7.6370000000000005 -6.187,12.885 L284.6152107772827,183.02521149253846 z" id="svg_5" stroke="#ffffff" stroke-opacity="1" fill="#ffffff" fill-opacity="1"/>
			<path d="M489.3512107772827,212.01721149253845 H20.017210777282713 c-5.888,0 -10.667,4.779 -10.667,10.667 v192 c0,52.928 43.072,96 96,96 h298.667 c52.928,0 96,-43.072 96,-96 V222.68421149253845 C500.01721077728274,216.79621149253845 495.2392107772827,212.01721149253845 489.3512107772827,212.01721149253845 zM262.1512107772827,443.48421149253846 c-1.92,2.133 -4.6930000000000005,3.2 -7.467,3.2 c-2.773,0 -5.547,-1.067 -7.467,-3.2 c-2.133,-1.92 -3.2,-4.6930000000000005 -3.2,-7.467 c0,-2.773 1.067,-5.547 3.2,-7.467 c4.053,-4.053 10.88,-4.053 14.933,0 c2.133,1.92 3.2,4.6930000000000005 3.2,7.467 C265.3512107772827,438.7912114925385 264.28421077728274,441.56421149253845 262.1512107772827,443.48421149253846 zM265.3932107772827,374.98321149253843 l-0.02100000000000004,18.368 c0,5.888 -4.779,10.667 -10.667,10.667 c-5.888,0 -10.667,-4.8 -10.667,-10.667 L244.06021077728272,366.68421149253845 c0,-4.864 3.285,-9.109 8,-10.304 l2.368,-0.5760000000000006 C270.38521077728274,352.1352114925385 286.6842107772827,345.79921149253846 286.6842107772827,326.70521149253847 c0,-16.171 -14.357,-29.333 -32.021,-29.333 c-16.896,0 -30.955,12.075 -32,27.52 c-0.405,5.888 -5.163,10.283 -11.371,9.92 c-5.867,-0.405 -10.325,-5.483 -9.92,-11.371 c1.8130000000000002,-26.603 25.237,-47.424 53.312,-47.424 c29.419,0 53.355,22.72 53.355,50.667 C308.03921077728273,350.66321149253844 293.7032107772827,366.87621149253846 265.3932107772827,374.98321149253843 z" id="svg_6" stroke="#ffffff" stroke-opacity="1" fill="#ffffff" fill-opacity="1"/>
			<path d="M77.21221077728272,111.79321149253843 c-5.888,0 -10.56,4.779 -10.56,10.667 s4.885,10.667 10.773,10.667 s10.667,-4.779 10.667,-10.667 s-4.779,-10.667 -10.667,-10.667 H77.21221077728272 z" id="svg_7" stroke="#ffffff" stroke-opacity="1" fill="#ffffff" fill-opacity="1"/>
		</g>
	</g>
</g><g id="svg_8">
</g><g id="svg_9">
</g><g id="svg_10">
</g><g id="svg_11">
</g><g id="svg_12">
</g><g id="svg_13">
</g><g id="svg_14">
</g><g id="svg_15">
</g><g id="svg_16">
</g><g id="svg_17">
</g><g id="svg_18">
</g><g id="svg_19">
</g><g id="svg_20">
</g><g id="svg_21">
</g><g id="svg_22">
</g></g></svg>